<?xml version="1.0" encoding="utf-8"?>
<!-- Generator: Adobe Illustrator 18.1.0, SVG Export Plug-In . SVG Version: 6.00 Build 0)  -->
<!DOCTYPE svg PUBLIC "-//W3C//DTD SVG 1.1//EN" "http://www.w3.org/Graphics/SVG/1.1/DTD/svg11.dtd">
<svg version="1.1" id="Layer_1" xmlns="http://www.w3.org/2000/svg" xmlns:xlink="http://www.w3.org/1999/xlink" x="0px" y="0px"
	 viewBox="0 0 181.1 82.5" enable-background="new 0 0 181.1 82.5" xml:space="preserve">
<path d="M180,4.3c-12.2,2.7-21,14-24.3,18.9c-2.3,3.4-15.3,7.3-25.2,9.5c0.2,0.8,0.3,1.5,0.3,2.4c0,3.4-2.1,6.3-5.1,7.6
	c0.9,0.8,1.7,1.6,2.5,2.4c4.2,4.4,7.7,9.4,10.2,14.7l5,22.8c-9.5-6.7-22.8-14.8-31.1-14C100.1,69.7,52.7,83.1,7.9,82.3
	C4.4,80.5,1.9,78.7,0,77c0.4-0.9,0.7-1.8,1.1-2.7c-0.1,0.2-0.3,0.3-0.4,0.5c0.6-2.8,1.4-5.6,2.5-8.3c1.6-4.3,3.8-8.4,6.4-12.2
	c9.9-14.7,26.3-25.8,44.9-29.7c7.2-1.5,14.6-1.9,21.9-1.5c13.5,0.7,26.9,4.6,38.1,11.2c0.4-4.2,3.9-7.4,8.1-7.4c1.9,0,3.6,0.6,5,1.7
	c8.6-7.2,13.1-19.1,13.1-19.1s1.7-5.4,14-8.2c8.7-2,18-1.2,25.1,0.2C181.5,1.7,181.5,3.9,180,4.3z"/>
</svg>
