<?xml version="1.0" encoding="utf-8"?>
<!-- Generator: Adobe Illustrator 18.1.0, SVG Export Plug-In . SVG Version: 6.00 Build 0)  -->
<!DOCTYPE svg PUBLIC "-//W3C//DTD SVG 1.1//EN" "http://www.w3.org/Graphics/SVG/1.1/DTD/svg11.dtd">
<svg version="1.1" id="Layer_1" xmlns="http://www.w3.org/2000/svg" xmlns:xlink="http://www.w3.org/1999/xlink" x="0px" y="0px"
	 viewBox="0 0 142.8 71.6" enable-background="new 0 0 142.8 71.6" xml:space="preserve">
<path fill="#974000" d="M140.8,71.6c-2-10.1-6.9-19.6-14-27.6c-1.7-1.3-3.5-2.4-5.7-2.8c-2.2-0.4-4.4,0.1-6.6,0.9
	c-7.8,5-14.8,10.9-20.8,17.6c0.3-8.1,3-16.1,7.8-23c-14.8,6.7-28.1,15.8-39.2,26.8c3.5-11.9,10.3-23.1,19.7-32
	c-16.7,5.5-32,14.8-43.9,26.7c2.1-7.4,5.4-14.6,9.5-21.2c-13.6,5.2-25.5,14-34,24.9c0.4-10,3.2-19.9,8-28.8C13.3,38.1,6,44.5,0,51.8
	C5.2,27.7,27.2,7.1,53.8,1.7C61,0.2,68.4-0.3,75.7,0.1c19.6,1.1,38.9,8.6,51.9,22C140.5,35.4,146.2,54.6,140.8,71.6z"/>
</svg>
