<?xml version="1.0" encoding="utf-8"?>
<!-- Generator: Adobe Illustrator 18.1.0, SVG Export Plug-In . SVG Version: 6.00 Build 0)  -->
<!DOCTYPE svg PUBLIC "-//W3C//DTD SVG 1.1//EN" "http://www.w3.org/Graphics/SVG/1.1/DTD/svg11.dtd">
<svg version="1.1" id="Layer_1" xmlns="http://www.w3.org/2000/svg" xmlns:xlink="http://www.w3.org/1999/xlink" x="0px" y="0px"
	 viewBox="0 0 23 23" enable-background="new 0 0 23 23" xml:space="preserve">
<g>
	<path fill="#D600A4" d="M21.2,10.9v6.4c0,3.2-2,5.8-4.4,5.8H5.4C3,23.2,1,20.5,1,17.3v-6.4C1,4.9,4.7,0,9.2,0H13
		C17.5,0,21.2,4.9,21.2,10.9z"/>
	<path fill="#91054B" d="M25.9,11.6v5.2c0,0.4,0,0.7-0.1,1.1c-0.5,3-3.2,5.3-6.3,5.3H2.7c-3.2,0-5.8-2.3-6.3-5.3
		c-0.1-0.3-0.1-0.7-0.1-1.1v-5.2c3.4-4.4,8.8-7.2,14.8-7.2C17.1,4.4,22.4,7.2,25.9,11.6z"/>
	<path fill="#606060" d="M19.9,19.2c0,1.4-0.3,2.8-1,4H3.3c-0.6-1.2-1-2.5-1-4c0-4.8,3.9-8.8,8.8-8.8C16,10.4,19.9,14.3,19.9,19.2z"
		/>
	<path fill="#606060" d="M25.8,17.8c-0.5,3-3.2,5.3-6.3,5.3H2.7c-3.2,0-5.8-2.3-6.3-5.3H25.8z"/>
</g>
</svg>
